<svg width="18" height="18" viewBox="0 0 18 18" fill="none" xmlns="http://www.w3.org/2000/svg">
<path d="M8.99998 8.26666C10.62 8.26666 11.9333 6.95336 11.9333 5.33333C11.9333 3.71329 10.62 2.39999 8.99998 2.39999C7.37995 2.39999 6.06665 3.71329 6.06665 5.33333C6.06665 6.95336 7.37995 8.26666 8.99998 8.26666Z" fill="black" stroke="black" stroke-width="0.733333" stroke-linecap="round" stroke-linejoin="round"/>
<path d="M4.60004 15.6V14.1333C4.60004 13.3554 4.90908 12.6093 5.45919 12.0592C6.0093 11.5091 6.7554 11.2 7.53337 11.2H10.4667C11.2447 11.2 11.9908 11.5091 12.5409 12.0592C13.091 12.6093 13.4 13.3554 13.4 14.1333V15.6" fill="black"/>
<path d="M4.60004 15.6V14.1333C4.60004 13.3554 4.90908 12.6093 5.45919 12.0592C6.0093 11.5091 6.7554 11.2 7.53337 11.2H10.4667C11.2447 11.2 11.9908 11.5091 12.5409 12.0592C13.091 12.6093 13.4 13.3554 13.4 14.1333V15.6" stroke="black" stroke-width="0.733333" stroke-linecap="round" stroke-linejoin="round"/>
</svg>
