<svg width="19" height="19" viewBox="0 0 19 19" fill="none" xmlns="http://www.w3.org/2000/svg">
<circle cx="9.5" cy="9.5" r="9.5" fill="#3EAAD9" fill-opacity="0.2"/>
<path d="M6.2499 7.33332C6.84821 7.33332 7.33323 6.84829 7.33323 6.24998C7.33323 5.65167 6.84821 5.16665 6.2499 5.16665C5.65159 5.16665 5.16656 5.65167 5.16656 6.24998C5.16656 6.84829 5.65159 7.33332 6.2499 7.33332Z" stroke="#055A8B" stroke-width="0.54" stroke-linecap="round" stroke-linejoin="round"/>
<path d="M12.7499 13.8333C13.3482 13.8333 13.8332 13.3483 13.8332 12.75C13.8332 12.1517 13.3482 11.6666 12.7499 11.6666C12.1516 11.6666 11.6666 12.1517 11.6666 12.75C11.6666 13.3483 12.1516 13.8333 12.7499 13.8333Z" stroke="#055A8B" stroke-width="0.54" stroke-linecap="round" stroke-linejoin="round"/>
<path d="M8.95831 6.25H11.6666C11.954 6.25 12.2295 6.36414 12.4327 6.5673C12.6358 6.77047 12.75 7.04602 12.75 7.33333V11.6667" stroke="#055A8B" stroke-width="0.54" stroke-linecap="round" stroke-linejoin="round"/>
<path d="M10.5833 7.875L8.95831 6.25L10.5833 4.625" stroke="#055A8B" stroke-width="0.54" stroke-linecap="round" stroke-linejoin="round"/>
<path d="M10.0417 12.75H7.33333C7.04602 12.75 6.77047 12.6358 6.5673 12.4327C6.36414 12.2295 6.25 11.9539 6.25 11.6666V7.3333" stroke="#055A8B" stroke-width="0.54" stroke-linecap="round" stroke-linejoin="round"/>
<path d="M8.41656 11.125L10.0416 12.75L8.41656 14.375" stroke="#055A8B" stroke-width="0.54" stroke-linecap="round" stroke-linejoin="round"/>
</svg>
