<svg width="20" height="20" viewBox="0 0 20 20" fill="none" xmlns="http://www.w3.org/2000/svg">
<circle cx="10" cy="10.25" r="9.5" fill="#3EAAD9" fill-opacity="0.3"/>
<path d="M12.6873 7.96297C12.5735 7.64006 12.3657 7.3586 12.0905 7.1548C11.8154 6.95101 11.4856 6.83422 11.1436 6.81945H8.85651C8.40159 6.81945 7.96531 7.00016 7.64363 7.32184C7.32195 7.64352 7.14124 8.0798 7.14124 8.53472C7.14124 8.98964 7.32195 9.42593 7.64363 9.74761C7.96531 10.0693 8.40159 10.25 8.85651 10.25H11.1436C11.5985 10.25 12.0348 10.4307 12.3564 10.7524C12.6781 11.0741 12.8588 11.5104 12.8588 11.9653C12.8588 12.4202 12.6781 12.8565 12.3564 13.1782C12.0348 13.4998 11.5985 13.6806 11.1436 13.6806H8.85651C8.51446 13.6658 8.18464 13.549 7.90953 13.3452C7.63441 13.1414 7.42657 12.8599 7.31276 12.537" stroke="white" stroke-width="0.549769" stroke-linecap="round" stroke-linejoin="round"/>
<path d="M10 13.6806V15.3958M10 5.10417V6.81945V5.10417Z" stroke="white" stroke-width="0.549769" stroke-linecap="round" stroke-linejoin="round"/>
</svg>
