<svg width="29" height="29" viewBox="0 0 29 29" fill="none" xmlns="http://www.w3.org/2000/svg">
<path fill-rule="evenodd" clip-rule="evenodd" d="M15.0975 0.548799C14.4988 0.248586 13.7936 0.248586 13.195 0.548799L1.1707 6.57901C0.453073 6.9389 0 7.67298 0 8.47579V11.1922C0 11.9735 0.633348 12.6068 1.41462 12.6068H26.8778C27.6591 12.6068 28.2925 11.9735 28.2925 11.1922V8.47579C28.2925 7.67297 27.8394 6.9389 27.1218 6.57901L15.0975 0.548799ZM28.2925 17.2671C28.2925 16.4859 27.6591 15.8525 26.8778 15.8525H1.41462C0.633347 15.8525 0 16.4859 0 17.2671V20.0452C0 20.848 0.453074 21.5821 1.1707 21.942L13.195 27.9722C13.7936 28.2724 14.4988 28.2724 15.0975 27.9722L27.1218 21.942C27.8394 21.5821 28.2925 20.848 28.2925 20.0452V17.2671Z" fill="white"/>
</svg>
